{
.appVersion = "983";
copyright = "Copyright © 2017 Adobe Systems Incorporated (http://www.adobe.com/).";
customParameters = (
{
name = description;
value = "Dr. Ken Lunde (project architect, glyph set definition & overall production); Masataka HATTORI 服部正貴 (production & ideograph elements)";
},
{
name = license;
value = "This Font Software is licensed under the SIL Open Font License, Version 1.1. This Font Software is distributed on an \"AS IS\" BASIS, WITHOUT WARRANTIES OR CONDITIONS OF ANY KIND, either express or implied. See the SIL Open Font License for the specific language, permissions and limitations governing your use of this Font Software.";
},
{
name = licenseURL;
value = "http://scripts.sil.org/OFL";
},
{
name = vendorID;
value = GOOG;
},
{
name = panose;
value = (
2,
2,
6,
0,
0,
0,
0,
0,
0,
0
);
},
{
name = unicodeRanges;
value = (
0,
1,
7,
28,
29,
36,
42,
43,
44,
45,
48,
49,
50,
51,
52,
54,
55,
56,
57,
59,
61,
65,
66,
68
);
},
{
name = codePageRanges;
value = (
1252,
1250,
1251,
1258,
932,
936,
949,
1361
);
},
{
name = ROS;
value = "Adobe-Identity-0";
},
{
name = glyphOrder;
value = (
.notdef,
space
);
}
);
date = "2017-03-21 12:46:03 +0000";
designer = "Ryoko NISHIZUKA 西塚涼子 (kana & ideographs); Frank Grießhammer (Latin, Greek & Cyrillic); Wenlong ZHANG 张文龙 (bopomofo); Sandoll Communications 산돌커뮤니케이션, Soohyun PARK 박수현, Yejin WE 위예진 & Donghoon HAN 한동훈 (hangul elements, letters & syllables)";
designerURL = "http://www.adobe.com/type/";
familyName = "Yaku Han MP";
fontMaster = (
{
alignmentZones = (
"{1900, 0}",
"{1100, 0}",
"{1100, 0}",
"{1100, 0}",
"{1100, 0}",
"{1100, 0}",
"{1100, 0}",
"{1100, 0}",
"{1100, 0}",
"{1100, 0}",
"{1100, 0}",
"{1100, 0}",
"{827, 0}",
"{749, 18}",
"{749, 18}",
"{749, 18}",
"{749, 18}",
"{749, 0}",
"{737, 18}",
"{711, 15}",
"{536, 19}",
"{536, 19}",
"{536, 0}",
"{526, 15}",
"{0, 0}",
"{0, -15}",
"{0, -18}",
"{0, -18}",
"{0, -18}",
"{0, -18}",
"{0, -19}",
"{-176, 0}",
"{-180, 0}",
"{-224, 0}",
"{-250, 0}",
"{-250, 0}",

glyphs = (
{
glyphname = .notdef;
lastChange = "2017-04-16 03:26:41 +0000";
layers = (
{
layerId = "2E877CCE-917D-4F0F-83D6-48CBDF7788F7";
paths = (
{
closed = 1;
nodes = (
"100 -120 LINE",
"900 -120 LINE",
"900 880 LINE",
"100 880 LINE"
);
},
{
closed = 1;
nodes = (
"500 421 LINE",
"182 830 LINE",
"818 830 LINE"
);
},
{
closed = 1;
nodes = (
"532 380 LINE",
"850 789 LINE",
"850 -29 LINE"
);
},
{
closed = 1;
nodes = (
"182 -70 LINE",
"500 339 LINE",
"818 -70 LINE"
);
},
{
closed = 1;
nodes = (
"150 789 LINE",
"468 380 LINE",
"150 -29 LINE"
);
}
);
vertWidth = 1000;
width = 1000;
}
);
note = .notdef;
},
{
glyphname = "comma-han";
lastChange = "2017-04-16 03:27:59 +0000";
layers = (
{
layerId = "2E877CCE-917D-4F0F-83D6-48CBDF7788F7";
paths = (
{
closed = 1;
nodes = (
"50 162 LINE",
"140 94 OFFCURVE",
"174 26 OFFCURVE",
"203 -35 CURVE SMOOTH",
"218 -66 OFFCURVE",
"235 -79 OFFCURVE",
"260 -79 CURVE SMOOTH",
"293 -79 OFFCURVE",
"315 -56 OFFCURVE",
"315 -21 CURVE SMOOTH",
"315 0 OFFCURVE",
"310 21 OFFCURVE",
"293 46 CURVE SMOOTH",
"257 98 OFFCURVE",
"189 147 OFFCURVE",
"60 176 CURVE"
);
}
);
vertWidth = 1000;
width = 515;
}
);
leftKerningGroup = "comma-han";
note = "comma-han";
unicode = 3001;
},
{
glyphname = ellipsis;
lastChange = "2017-04-16 03:26:41 +0000";
layers = (
{
layerId = "2E877CCE-917D-4F0F-83D6-48CBDF7788F7";
paths = (
{
closed = 1;
nodes = (
"199 322 OFFCURVE",
"225 348 OFFCURVE",
"225 380 CURVE SMOOTH",
"225 412 OFFCURVE",
"199 438 OFFCURVE",
"167 438 CURVE SMOOTH",
"135 438 OFFCURVE",
"109 412 OFFCURVE",
"109 380 CURVE SMOOTH",
"109 348 OFFCURVE",
"135 322 OFFCURVE",
"167 322 CURVE SMOOTH"
);
},
{
closed = 1;
nodes = (
"532 322 OFFCURVE",
"558 348 OFFCURVE",
"558 380 CURVE SMOOTH",
"558 412 OFFCURVE",
"532 438 OFFCURVE",
"500 438 CURVE SMOOTH",
"468 438 OFFCURVE",
"442 412 OFFCURVE",
"442 380 CURVE SMOOTH",
"442 348 OFFCURVE",
"468 322 OFFCURVE",
"500 322 CURVE SMOOTH"
);
},
{
closed = 1;
nodes = (
"865 322 OFFCURVE",
"891 348 OFFCURVE",
"891 380 CURVE SMOOTH",
"891 412 OFFCURVE",
"865 438 OFFCURVE",
"833 438 CURVE SMOOTH",
"801 438 OFFCURVE",
"775 412 OFFCURVE",
"775 380 CURVE SMOOTH",
"775 348 OFFCURVE",
"801 322 OFFCURVE",
"833 322 CURVE SMOOTH"
);
}
);
vertWidth = 1000;
width = 1000;
}
);
note = ellipsis;
unicode = 2026;
},
{
glyphname = "period-han";
lastChange = "2017-04-16 03:28:04 +0000";
layers = (
{
layerId = "2E877CCE-917D-4F0F-83D6-48CBDF7788F7";
paths = (
{
closed = 1;
nodes = (
"270 -83 OFFCURVE",
"333 -19 OFFCURVE",
"333 59 CURVE SMOOTH",
"333 137 OFFCURVE",
"270 200 OFFCURVE",
"192 200 CURVE SMOOTH",
"114 200 OFFCURVE",
"50 137 OFFCURVE",
"50 59 CURVE SMOOTH",
"50 -19 OFFCURVE",
"114 -83 OFFCURVE",
"192 -83 CURVE SMOOTH"
);
},
{
closed = 1;
nodes = (
"250 164 OFFCURVE",
"297 117 OFFCURVE",
"297 59 CURVE SMOOTH",
"297 1 OFFCURVE",
"250 -47 OFFCURVE",
"192 -47 CURVE SMOOTH",
"133 -47 OFFCURVE",
"86 1 OFFCURVE",
"86 59 CURVE SMOOTH",
"86 117 OFFCURVE",
"133 164 OFFCURVE",
"192 164 CURVE SMOOTH"
);
}
);
vertWidth = 1000;
width = 733;
}
);
leftKerningGroup = "comma-han";
note = "period-han";
unicode = 3002;
},
{
glyphname = colon.full;
lastChange = "2017-04-16 03:28:14 +0000";
layers = (
{
layerId = "2E877CCE-917D-4F0F-83D6-48CBDF7788F7";
paths = (
{
closed = 1;
nodes = (
"150 69 OFFCURVE",
"184 35 OFFCURVE",
"227 35 CURVE SMOOTH",
"271 35 OFFCURVE",
"305 69 OFFCURVE",
"305 112 CURVE SMOOTH",
"305 155 OFFCURVE",
"271 190 OFFCURVE",
"227 190 CURVE SMOOTH",
"184 190 OFFCURVE",
"150 155 OFFCURVE",
"150 112 CURVE SMOOTH"
);
},
{
closed = 1;
nodes = (
"150 542 OFFCURVE",
"184 507 OFFCURVE",
"227 507 CURVE SMOOTH",
"271 507 OFFCURVE",
"305 542 OFFCURVE",
"305 584 CURVE SMOOTH",
"305 627 OFFCURVE",
"271 662 OFFCURVE",
"227 662 CURVE SMOOTH",
"184 662 OFFCURVE",
"150 627 OFFCURVE",
"150 584 CURVE SMOOTH"
);
}
);
vertWidth = 1000;
width = 455;
}
);
note = colon.full;
unicode = FF1A;
},
{
glyphname = exclam.full;
lastChange = "2017-04-16 03:28:14 +0000";
layers = (
{
layerId = "2E877CCE-917D-4F0F-83D6-48CBDF7788F7";
paths = (
{
closed = 1;
nodes = (
"265 -13 OFFCURVE",
"296 19 OFFCURVE",
"296 59 CURVE SMOOTH",
"296 98 OFFCURVE",
"265 131 OFFCURVE",
"223 131 CURVE SMOOTH",
"180 131 OFFCURVE",
"150 98 OFFCURVE",
"150 59 CURVE SMOOTH",
"150 19 OFFCURVE",
"180 -13 OFFCURVE",
"223 -13 CURVE SMOOTH"
);
},
{
closed = 1;
nodes = (
"183 767 OFFCURVE",
"155 742 OFFCURVE",
"155 687 CURVE SMOOTH",
"155 634 OFFCURVE",
"163 550 OFFCURVE",
"189 369 CURVE SMOOTH",
"205 223 LINE",
"241 223 LINE",
"257 369 LINE SMOOTH",
"283 549 OFFCURVE",
"291 634 OFFCURVE",
"291 687 CURVE SMOOTH",
"291 742 OFFCURVE",
"263 767 OFFCURVE",
"223 767 CURVE SMOOTH"
);
}
);
vertWidth = 1000;
width = 446;
}
);
note = exclam.full;
unicode = FF01;
},
{
glyphname = question.full;
lastChange = "2017-04-16 03:28:14 +0000";
layers = (
{
layerId = "2E877CCE-917D-4F0F-83D6-48CBDF7788F7";
paths = (
{
closed = 1;
nodes = (
"321 129 OFFCURVE",
"291 97 OFFCURVE",
"291 58 CURVE SMOOTH",
"291 19 OFFCURVE",
"321 -13 OFFCURVE",
"363 -13 CURVE SMOOTH",
"405 -13 OFFCURVE",
"435 19 OFFCURVE",
"435 58 CURVE SMOOTH",
"435 97 OFFCURVE",
"405 129 OFFCURVE",
"363 129 CURVE SMOOTH"
);
},
{
closed = 1;
nodes = (
"295 716 LINE",
"320 725 OFFCURVE",
"340 728 OFFCURVE",
"368 728 CURVE SMOOTH",
"457 728 OFFCURVE",
"521 690 OFFCURVE",
"521 600 CURVE SMOOTH",
"521 534 OFFCURVE",
"489 493 OFFCURVE",
"422 441 CURVE SMOOTH",
"355 387 OFFCURVE",
"333 360 OFFCURVE",
"333 315 CURVE SMOOTH",
"333 288 OFFCURVE",
"337 249 OFFCURVE",
"343 214 CURVE",
"379 214 LINE",
"384 280 LINE SMOOTH",
"389 332 OFFCURVE",
"413 351 OFFCURVE",
"486 396 CURVE SMOOTH",
"587 459 OFFCURVE",
"628 514 OFFCURVE",
"628 593 CURVE SMOOTH",
"628 695 OFFCURVE",
"549 767 OFFCURVE",
"394 767 CURVE SMOOTH",
"260 767 OFFCURVE",
"160 698 OFFCURVE",
"150 583 CURVE",
"162 562 OFFCURVE",
"181 553 OFFCURVE",
"202 553 CURVE SMOOTH",
"239 553 OFFCURVE",
"260 574 OFFCURVE",
"273 631 CURVE SMOOTH"
);
}
);
vertWidth = 1000;
width = 778;
}
);
note = question.full;
unicode = FF1F;
},
{
glyphname = semicolon.full;
lastChange = "2017-04-16 03:28:14 +0000";
layers = (
{
layerId = "2E877CCE-917D-4F0F-83D6-48CBDF7788F7";
paths = (
{
closed = 1;
nodes = (
"166 -104 LINE",
"278 -55 OFFCURVE",
"316 48 OFFCURVE",
"316 132 CURVE SMOOTH",
"316 192 OFFCURVE",
"282 230 OFFCURVE",
"234 230 CURVE SMOOTH",
"187 230 OFFCURVE",
"159 196 OFFCURVE",
"159 159 CURVE SMOOTH",
"159 99 OFFCURVE",
"216 79 OFFCURVE",
"257 65 CURVE",
"252 23 OFFCURVE",
"226 -37 OFFCURVE",
"150 -75 CURVE"
);
},
{
closed = 1;
nodes = (
"161 542 OFFCURVE",
"195 507 OFFCURVE",
"238 507 CURVE SMOOTH",
"282 507 OFFCURVE",
"316 542 OFFCURVE",
"316 584 CURVE SMOOTH",
"316 627 OFFCURVE",
"282 662 OFFCURVE",
"238 662 CURVE SMOOTH",
"195 662 OFFCURVE",
"161 627 OFFCURVE",
"161 584 CURVE SMOOTH"
);
}
);
vertWidth = 1000;
width = 466;
}
);
note = semicolon.full;
unicode = FF1B;
},
{
glyphname = blacklenticularbracketleft;
lastChange = "2017-04-16 03:28:26 +0000";
layers = (
{
layerId = "2E877CCE-917D-4F0F-83D6-48CBDF7788F7";
paths = (
{
closed = 1;
nodes = (
"543 -71 LINE",
"385 2 OFFCURVE",
"280 157 OFFCURVE",
"280 380 CURVE SMOOTH",
"280 603 OFFCURVE",
"385 758 OFFCURVE",
"543 831 CURVE",
"543 848 LINE",
"200 848 LINE",
"200 -88 LINE",
"543 -88 LINE"
);
}
);
vertWidth = 1000;
width = 573;
}
);
note = blacklenticularbracketleft;
unicode = 3010;
},
{
glyphname = blacklenticularbracketright;
lastChange = "2017-04-16 03:28:40 +0000";
layers = (
{
layerId = "2E877CCE-917D-4F0F-83D6-48CBDF7788F7";
paths = (
{
closed = 1;
nodes = (
"30 -88 LINE",
"373 -88 LINE",
"373 848 LINE",
"30 848 LINE",
"30 831 LINE",
"188 758 OFFCURVE",
"293 603 OFFCURVE",
"293 380 CURVE SMOOTH",
"293 157 OFFCURVE",
"188 2 OFFCURVE",
"30 -71 CURVE"
);
}
);
vertWidth = 1000;
width = 573;
}
);
note = blacklenticularbracketright;
unicode = 3011;
},
{
glyphname = braceleft.full;
lastChange = "2017-04-16 03:28:26 +0000";
layers = (
{
layerId = "2E877CCE-917D-4F0F-83D6-48CBDF7788F7";
paths = (
{
closed = 1;
nodes = (
"596 831 LINE",
"596 873 LINE",
"548 873 LINE SMOOTH",
"403 873 OFFCURVE",
"323 823 OFFCURVE",
"323 729 CURVE SMOOTH",
"323 643 OFFCURVE",
"355 566 OFFCURVE",
"355 503 CURVE SMOOTH",
"355 450 OFFCURVE",
"322 420 OFFCURVE",
"200 400 CURVE",
"200 361 LINE",
"323 340 OFFCURVE",
"355 310 OFFCURVE",
"355 258 CURVE SMOOTH",
"355 194 OFFCURVE",
"323 117 OFFCURVE",
"323 32 CURVE SMOOTH",
"323 -63 OFFCURVE",
"403 -112 OFFCURVE",
"548 -112 CURVE SMOOTH",
"596 -112 LINE",
"596 -72 LINE",
"547 -68 LINE SMOOTH",
"454 -62 OFFCURVE",
"419 -28 OFFCURVE",
"419 40 CURVE SMOOTH",
"419 110 OFFCURVE",
"431 177 OFFCURVE",
"431 241 CURVE SMOOTH",
"431 304 OFFCURVE",
"392 358 OFFCURVE",
"299 380 CURVE",
"392 403 OFFCURVE",
"431 456 OFFCURVE",
"431 520 CURVE SMOOTH",
"431 583 OFFCURVE",
"419 648 OFFCURVE",
"419 722 CURVE SMOOTH",
"419 789 OFFCURVE",
"454 824 OFFCURVE",
"547 829 CURVE SMOOTH"
);
}
);
vertWidth = 1000;
width = 626;
}
);
note = braceleft.full;
unicode = FF5B;
},
{
glyphname = braceright.full;
lastChange = "2017-04-16 03:28:40 +0000";
layers = (
{
layerId = "2E877CCE-917D-4F0F-83D6-48CBDF7788F7";
paths = (
{
closed = 1;
nodes = (
"426 399 LINE",
"303 420 OFFCURVE",
"271 450 OFFCURVE",
"271 502 CURVE SMOOTH",
"271 566 OFFCURVE",
"303 643 OFFCURVE",
"303 728 CURVE SMOOTH",
"303 823 OFFCURVE",
"223 872 OFFCURVE",
"78 872 CURVE SMOOTH",
"30 872 LINE",
"30 832 LINE",
"79 828 LINE SMOOTH",
"172 822 OFFCURVE",
"207 788 OFFCURVE",
"207 720 CURVE SMOOTH",
"207 650 OFFCURVE",
"195 583 OFFCURVE",
"195 519 CURVE SMOOTH",
"195 456 OFFCURVE",
"234 402 OFFCURVE",
"327 380 CURVE",
"234 357 OFFCURVE",
"195 304 OFFCURVE",
"195 240 CURVE SMOOTH",
"195 177 OFFCURVE",
"207 112 OFFCURVE",
"207 38 CURVE SMOOTH",
"207 -29 OFFCURVE",
"172 -64 OFFCURVE",
"79 -69 CURVE SMOOTH",
"30 -71 LINE",
"30 -113 LINE",
"78 -113 LINE SMOOTH",
"223 -113 OFFCURVE",
"303 -63 OFFCURVE",
"303 31 CURVE SMOOTH",
"303 117 OFFCURVE",
"271 194 OFFCURVE",
"271 257 CURVE SMOOTH",
"271 310 OFFCURVE",
"304 340 OFFCURVE",
"426 360 CURVE"
);
}
);
vertWidth = 1000;
width = 626;
}
);
note = braceright.full;
unicode = FF5D;
},
{
glyphname = cornerbracketleft;
lastChange = "2017-04-16 03:28:26 +0000";
layers = (
{
layerId = "2E877CCE-917D-4F0F-83D6-48CBDF7788F7";
paths = (
{
closed = 1;
nodes = (
"200 203 LINE",
"240 203 LINE",
"240 810 LINE",
"516 810 LINE",
"516 848 LINE",
"200 848 LINE"
);
}
);
vertWidth = 1000;
width = 546;
}
);
note = cornerbracketleft;
unicode = 300C;
},
{
glyphname = cornerbracketright;
lastChange = "2017-04-16 03:28:40 +0000";
layers = (
{
layerId = "2E877CCE-917D-4F0F-83D6-48CBDF7788F7";
paths = (
{
closed = 1;
nodes = (
"346 557 LINE",
"306 557 LINE",
"306 -50 LINE",
"30 -50 LINE",
"30 -88 LINE",
"346 -88 LINE"
);
}
);
vertWidth = 1000;
width = 546;
}
);
note = cornerbracketright;
unicode = 300D;
},
{
glyphname = dblanglebracketleft;
lastChange = "2017-04-16 03:28:26 +0000";
layers = (
{
layerId = "2E877CCE-917D-4F0F-83D6-48CBDF7788F7";
paths = (
{
closed = 1;
nodes = (
"240 380 LINE",
"499 833 LINE",
"470 851 LINE",
"200 380 LINE",
"470 -91 LINE",
"499 -73 LINE"
);
},
{
closed = 1;
nodes = (
"383 380 LINE",
"642 833 LINE",
"613 851 LINE",
"343 380 LINE",
"613 -91 LINE",
"642 -73 LINE"
);
}
);
vertWidth = 1000;
width = 672;
}
);
note = dblanglebracketleft;
unicode = 300A;
},
{
glyphname = dblanglebracketright;
lastChange = "2017-04-16 03:28:40 +0000";
layers = (
{
layerId = "2E877CCE-917D-4F0F-83D6-48CBDF7788F7";
paths = (
{
closed = 1;
nodes = (
"202 -91 LINE",
"472 380 LINE",
"202 851 LINE",
"173 833 LINE",
"432 380 LINE",
"173 -73 LINE"
);
},
{
closed = 1;
nodes = (
"59 -91 LINE",
"329 380 LINE",
"59 851 LINE",
"30 833 LINE",
"289 380 LINE",
"30 -73 LINE"
);
}
);
vertWidth = 1000;
width = 672;
}
);
note = dblanglebracketright;
unicode = 300B;
},
{
glyphname = tortoiseshellbracketleft;
lastChange = "2017-04-16 03:28:26 +0000";
layers = (
{
layerId = "2E877CCE-917D-4F0F-83D6-48CBDF7788F7";
paths = (
{
closed = 1;
nodes = (
"432 -91 LINE",
"449 -57 LINE",
"239 41 LINE",
"239 719 LINE",
"449 817 LINE",
"432 851 LINE",
"200 742 LINE",
"200 18 LINE"
);
}
);
vertWidth = 1000;
width = 479;
}
);
note = tortoiseshellbracketleft;
unicode = 3014;
},
{
glyphname = tortoiseshellbracketright;
lastChange = "2017-04-16 03:28:40 +0000";
layers = (
{
layerId = "2E877CCE-917D-4F0F-83D6-48CBDF7788F7";
paths = (
{
closed = 1;
nodes = (
"47 -91 LINE",
"279 18 LINE",
"279 742 LINE",
"47 851 LINE",
"30 817 LINE",
"240 718 LINE",
"240 42 LINE",
"30 -57 LINE"
);
}
);
vertWidth = 1000;
width = 479;
}
);
note = tortoiseshellbracketright;
unicode = 3015;
},
{
glyphname = whitecornerbracketleft;
lastChange = "2017-04-16 03:28:26 +0000";
layers = (
{
layerId = "2E877CCE-917D-4F0F-83D6-48CBDF7788F7";
paths = (
{
closed = 1;
nodes = (
"554 702 LINE",
"554 848 LINE",
"200 848 LINE",
"200 197 LINE",
"350 197 LINE",
"350 702 LINE"
);
},
{
closed = 1;
nodes = (
"526 820 LINE",
"526 730 LINE",
"322 730 LINE",
"322 225 LINE",
"228 225 LINE",
"228 820 LINE"
);
}
);
vertWidth = 1000;
width = 584;
}
);
note = whitecornerbracketleft;
unicode = 300E;
},
{
glyphname = whitecornerbracketright;
lastChange = "2017-04-16 03:28:40 +0000";
layers = (
{
layerId = "2E877CCE-917D-4F0F-83D6-48CBDF7788F7";
paths = (
{
closed = 1;
nodes = (
"30 58 LINE",
"30 -88 LINE",
"384 -88 LINE",
"384 563 LINE",
"234 563 LINE",
"234 58 LINE"
);
},
{
closed = 1;
nodes = (
"58 -60 LINE",
"58 30 LINE",
"262 30 LINE",
"262 535 LINE",
"356 535 LINE",
"356 -60 LINE"
);
}
);
vertWidth = 1000;
width = 584;
}
);
note = whitecornerbracketright;
unicode = 300F;
},
{
glyphname = whitelenticularbracketleft;
lastChange = "2017-04-16 03:28:26 +0000";
layers = (
{
layerId = "2E877CCE-917D-4F0F-83D6-48CBDF7788F7";
paths = (
{
closed = 1;
nodes = (
"550 -67 LINE",
"396 0 OFFCURVE",
"288 157 OFFCURVE",
"288 380 CURVE SMOOTH",
"288 603 OFFCURVE",
"396 760 OFFCURVE",
"550 827 CURVE",
"550 848 LINE",
"200 848 LINE",
"200 -88 LINE",
"550 -88 LINE"
);
},
{
closed = 1;
nodes = (
"228 -60 LINE",
"228 820 LINE",
"478 820 LINE",
"390 765 OFFCURVE",
"260 633 OFFCURVE",
"260 380 CURVE SMOOTH",
"260 127 OFFCURVE",
"390 -5 OFFCURVE",
"478 -60 CURVE"
);
}
);
vertWidth = 1000;
width = 580;
}
);
note = whitelenticularbracketleft;
unicode = 3016;
},
{
glyphname = whitelenticularbracketright;
lastChange = "2017-04-16 03:28:40 +0000";
layers = (
{
layerId = "2E877CCE-917D-4F0F-83D6-48CBDF7788F7";
paths = (
{
closed = 1;
nodes = (
"379 -88 LINE",
"379 848 LINE",
"30 848 LINE",
"30 827 LINE",
"183 760 OFFCURVE",
"291 603 OFFCURVE",
"291 380 CURVE SMOOTH",
"291 157 OFFCURVE",
"183 0 OFFCURVE",
"30 -67 CURVE",
"30 -88 LINE"
);
},
{
closed = 1;
nodes = (
"319 633 OFFCURVE",
"190 765 OFFCURVE",
"102 820 CURVE",
"351 820 LINE",
"351 -60 LINE",
"102 -60 LINE",
"190 -5 OFFCURVE",
"319 127 OFFCURVE",
"319 380 CURVE SMOOTH"
);
}
);
vertWidth = 1000;
width = 579;
}
);
note = whitelenticularbracketright;
unicode = 3017;
},
{
glyphname = bracketleft.full;
lastChange = "2017-04-16 03:28:26 +0000";
layers = (
{
layerId = "2E877CCE-917D-4F0F-83D6-48CBDF7788F7";
paths = (
{
closed = 1;
nodes = (
"200 -88 LINE",
"450 -88 LINE",
"450 -50 LINE",
"239 -50 LINE",
"239 810 LINE",
"450 810 LINE",
"450 848 LINE",
"200 848 LINE"
);
}
);
vertWidth = 1000;
width = 480;
}
);
note = bracketleft.full;
unicode = FF3B;
},
{
glyphname = bracketright.full;
lastChange = "2017-04-16 03:28:40 +0000";
layers = (
{
layerId = "2E877CCE-917D-4F0F-83D6-48CBDF7788F7";
paths = (
{
closed = 1;
nodes = (
"280 -88 LINE",
"280 848 LINE",
"30 848 LINE",
"30 810 LINE",
"241 810 LINE",
"241 -50 LINE",
"30 -50 LINE",
"30 -88 LINE"
);
}
);
vertWidth = 1000;
width = 480;
}
);
note = bracketright.full;
unicode = FF3D;
},
{
glyphname = parenleft.full;
lastChange = "2017-04-16 03:28:26 +0000";
layers = (
{
layerId = "2E877CCE-917D-4F0F-83D6-48CBDF7788F7";
paths = (
{
closed = 1;
nodes = (
"200 138 OFFCURVE",
"337 -4 OFFCURVE",
"478 -91 CURVE",
"494 -72 LINE",
"379 24 OFFCURVE",
"283 165 OFFCURVE",
"283 380 CURVE SMOOTH",
"283 595 OFFCURVE",
"379 736 OFFCURVE",
"494 832 CURVE",
"478 851 LINE",
"337 764 OFFCURVE",
"200 622 OFFCURVE",
"200 380 CURVE SMOOTH"
);
}
);
vertWidth = 1000;
width = 524;
}
);
note = parenleft.full;
unicode = FF08;
},
{
glyphname = parenright.full;
lastChange = "2017-04-16 03:28:40 +0000";
layers = (
{
layerId = "2E877CCE-917D-4F0F-83D6-48CBDF7788F7";
paths = (
{
closed = 1;
nodes = (
"30 832 LINE",
"145 736 OFFCURVE",
"241 595 OFFCURVE",
"241 380 CURVE SMOOTH",
"241 165 OFFCURVE",
"145 24 OFFCURVE",
"30 -72 CURVE",
"46 -91 LINE",
"187 -4 OFFCURVE",
"324 138 OFFCURVE",
"324 380 CURVE SMOOTH",
"324 622 OFFCURVE",
"187 764 OFFCURVE",
"46 851 CURVE"
);
}
);
vertWidth = 1000;
width = 524;
}
);
note = parenright.full;
unicode = FF09;
},
{
glyphname = "dot-kata";
lastChange = "2017-04-16 03:28:14 +0000";
layers = (
{
layerId = "2E877CCE-917D-4F0F-83D6-48CBDF7788F7";
paths = (
{
closed = 1;
nodes = (
"356 437 OFFCURVE",
"310 483 OFFCURVE",
"253 483 CURVE SMOOTH",
"196 483 OFFCURVE",
"150 437 OFFCURVE",
"150 380 CURVE SMOOTH",
"150 323 OFFCURVE",
"196 277 OFFCURVE",
"253 277 CURVE SMOOTH",
"310 277 OFFCURVE",
"356 323 OFFCURVE",
"356 380 CURVE SMOOTH"
);
}
